<?xml version="1.0" standalone="no"?>
<!DOCTYPE svg PUBLIC "-//W3C//DTD SVG 20010904//EN"
 "http://www.w3.org/TR/2001/REC-SVG-20010904/DTD/svg10.dtd">
<svg version="1.0" xmlns="http://www.w3.org/2000/svg"
 width="220.000000pt" height="220.000000pt" viewBox="0 0 220.000000 220.000000"
 preserveAspectRatio="xMidYMid meet">
<metadata>
Created by potrace 1.14, written by Peter Selinger 2001-2017
</metadata>
<g transform="translate(0.000000,220.000000) scale(0.100000,-0.100000)"
fill="#000000" stroke="none">
<path d="M925 2169 c-157 -28 -250 -58 -355 -115 -290 -159 -485 -418 -550
-731 -22 -107 -20 -312 3 -419 69 -307 276 -573 562 -719 90 -46 230 -94 295
-102 19 -2 46 -8 60 -12 44 -14 299 -5 383 13 180 39 335 110 467 215 58 45
147 135 185 186 16 22 33 42 36 45 14 11 100 179 123 241 110 294 69 651 -108
918 -76 117 -218 257 -326 323 -115 70 -289 138 -387 151 -22 4 -52 9 -65 12
-57 14 -228 11 -323 -6z"/>
</g>
</svg>
